<svg xmlns="http://www.w3.org/2000/svg" height="639" width="639.9995727539062" style=""><rect id="backgroundrect" width="100%" height="100%" x="0" y="0" fill="none" stroke="none"/><g class="currentLayer" style=""><title>Layer 1</title><path d="m608.4537263148194,419.98197174072266 c-11.113282,0.28125 -22.054688,-2.7851559999999997 -31.402344,-8.800781 c-25.359375,-14.933594 -56.832032,-14.933594 -82.195313,0 c-19.324219,11.730468 -43.574219,11.730468 -62.898437,0 c-25.367188,-14.933594 -56.835938,-14.933594 -82.203125,0 c-19.285157,11.734375 -43.507813,11.734375 -62.796875,0 c-12.347656,-7.589844 -26.609375,-11.476563 -41.097656,-11.199219 c-14.492188,-0.27734400000000003 -28.753907,3.609375 -41.101563,11.199219 c-9.347656,6.015625 -20.289063,9.082031 -31.394531,8.800781 c-11.113282,0.253906 -22.042969,-2.8125 -31.402344,-8.800781 c-12.304688,-7.605469 -26.542969,-11.496094 -41,-11.199219 c-14.488281,-0.27734400000000003 -28.753906,3.609375 -41.097656,11.199219 c-9.355469,6.003906 -20.292969,9.070312 -31.402344,8.800781 c-5.523438,0 -10,4.476563 -10,10 s4.476562,10 10,10 c14.488281,0.273437 28.753906,-3.613281 41.097656,-11.203125 c9.347656,-6.019531 20.289063,-9.085938 31.402344,-8.796875 c11.105469,-0.26953099999999997 22.042969,2.7929690000000003 31.398438,8.796875 c12.300781,7.609375 26.539062,11.496094 41.003906,11.203125 c14.484375,0.29296900000000003 28.757812,-3.597656 41.097656,-11.203125 c9.347656,-6.003906 20.285156,-9.066406 31.398438,-8.796875 c11.109374,-0.289063 22.050781,2.7773440000000003 31.398437,8.796875 c25.363281,14.9375 56.832031,14.9375 82.199219,0 c19.289062,-11.730469 43.511718,-11.730469 62.796875,0 c25.367187,14.9375 56.835937,14.9375 82.203125,0 c19.324218,-11.730469 43.574218,-11.730469 62.898437,0 c12.34375,7.589844 26.609375,11.476562 41.097657,11.203125 c5.5234369999999995,0 10,-4.476563 10,-10 s-4.476563,-10 -10,-10 zm0,0 " id="svg_1" class="" fill="#dadada" fill-opacity="1"/><path d="m28.461538314819336,399.98197174072266 c14.460938,0.32812500000000006 28.710938,-3.5625 41,-11.199219 c9.394531,-5.9921869999999995 20.363281,-9.054687 31.5,-8.800781 c11.113281,-0.289063 22.054688,2.7773440000000003 31.398438,8.800781 c0.11718700000000001,0.07812500000000003 0.261718,0.11718800000000001 0.402343,0.09765600000000003 c12.152344,7.589844 26.269531,11.449219 40.601563,11.101563 c14.527344,0.27734400000000003 28.835937,-3.640625 41.195312,-11.296875 c9.335938,-5.953125 20.234375,-8.984375 31.300782,-8.703125 c11.171874,-0.28125 22.179687,2.7773440000000003 31.597656,8.800781 c12.25,7.636719 26.46875,11.53125 40.902344,11.199219 c14.53125,0.27734400000000003 28.835937,-3.640625 41.195312,-11.296875 c19.367188,-11.636719 43.574219,-11.597656 62.898438,0.09765600000000003 c12.253906,7.636719 26.472656,11.53125 40.90625,11.199219 c14.484374,0.273437 28.746093000000002,-3.613281 41.097656,-11.199219 c9.394531,-5.9921869999999995 20.359375,-9.054687 31.496094,-8.800781 c2.070312,-0.003906000000000001 4.140624,0.09375000000000003 6.203124,0.29687500000000006 c8.96875,0.7226560000000001 17.625,3.640625 25.199219,8.503906 c12.339844,7.601563 26.605469,11.492188 41.097657,11.199219 c5.5234369999999995,0 10,-4.476563 10,-10 s-4.476563,-10 -10,-10 c-11.140626,0.265625 -22.109376,-2.796875 -31.5,-8.796875 c-6.09375,-3.625 -12.605469,-6.480469 -19.398438,-8.503906 c-4.476562,-1.238282 -9.066406,-2.042969 -13.699219,-2.4023440000000003 c-2.265625,-0.19921900000000006 -4.667969,-0.29687500000000006 -7.203125,-0.29687500000000006 h-0.6992180000000001 c-14.484376,-0.27734400000000003 -28.753907,3.609375 -41.097657,11.203125 c-19.359375,11.726562 -43.640625,11.726562 -63,0 c-25.292969,-14.9375 -56.703125,-14.9375 -81.996093,0 c-19.363282,11.726562 -43.644532,11.726562 -63.003907,0 c-12.285156,-7.636719 -26.53125,-11.53125 -40.996093,-11.203125 c-14.464844,-0.32812500000000006 -28.710938,3.5664059999999997 -41,11.203125 c-9.398438,5.984375 -20.359376,9.046875 -31.496094,8.796875 c-11.144532,0.265625 -22.117188,-2.796875 -31.503906,-8.796875 c-12.257813,-7.628906 -26.464844,-11.519531 -40.898438,-11.203125 c-3.78125,-0.03906300000000001 -7.5546880000000005,0.19531300000000004 -11.300781,0.6992190000000001 c-1.199219,0.10156200000000001 -2.296875,0.300781 -3.4023440000000003,0.503906 c-0.6718750000000002,0.070312 -1.34375,0.203125 -1.996094,0.394531 c-1,0.19921900000000006 -1.898437,0.39843800000000007 -2.804687,0.601563 c-0.90625,0.18359400000000003 -1.808594,0.41796800000000006 -2.6992190000000003,0.7031250000000001 c-2.421875,0.664062 -4.792969,1.4960930000000001 -7.097656,2.5 c-1.433594,0.5507810000000001 -2.8398440000000003,1.1835930000000001 -4.199219,1.898437 c-0.5859380000000001,0.22265600000000002 -1.152344,0.49218800000000007 -1.6992190000000003,0.800782 c-2.101562,1.097656 -4.101562,2.097656 -6.003906,3.199218 c-3.925781,2.304688 -8.039063,4.277344 -12.296875,5.8984380000000005 c-6.128906,1.996094 -12.554688,2.9414059999999997 -19,2.800781 c-5.523438,0 -10,4.476563 -10,10 s4.476562,10 10,10 zm0,0 " id="svg_2" class=""/><path d="m28.461538314819336,399.98197174072266 c14.460938,0.3281250000000001 28.710938,-3.5625 41,-11.199219 c9.394531,-5.9921869999999995 20.363281,-9.054687 31.5,-8.800781 c11.113281,-0.289063 22.054688,2.7773440000000003 31.398438,8.800781 c0.11718700000000003,0.07812500000000006 0.261718,0.11718800000000003 0.402343,0.09765600000000006 c12.152344,7.589844 26.269531,11.449219 40.601563,11.101563 c14.527344,0.2773440000000001 28.835937,-3.640625 41.195312,-11.296875 c9.335938,-5.953125 20.234375,-8.984375 31.300782,-8.703125 c11.171874,-0.28125 22.179687,2.7773440000000003 31.597656,8.800781 c12.25,7.636719 26.46875,11.53125 40.902344,11.199219 c14.53125,0.2773440000000001 28.835937,-3.640625 41.195312,-11.296875 c19.367188,-11.636719 43.574219,-11.597656 62.898438,0.09765600000000006 c12.253906,7.636719 26.472656,11.53125 40.90625,11.199219 c14.484374,0.273437 28.746093000000002,-3.613281 41.097656,-11.199219 c9.394531,-5.9921869999999995 20.359375,-9.054687 31.496094,-8.800781 c2.070312,-0.003906000000000002 4.140624,0.09375000000000006 6.203124,0.2968750000000001 c8.96875,0.7226560000000002 17.625,3.640625 25.199219,8.503906 c12.339844,7.601563 26.605469,11.492188 41.097657,11.199219 c5.5234369999999995,0 10,-4.476563 10,-10 s-4.476563,-10 -10,-10 c-11.140626,0.265625 -22.109376,-2.796875 -31.5,-8.796875 c-6.09375,-3.625 -12.605469,-6.480469 -19.398438,-8.503906 c-4.476562,-1.238282 -9.066406,-2.042969 -13.699219,-2.4023440000000003 c-2.265625,-0.19921900000000012 -4.667969,-0.2968750000000001 -7.203125,-0.2968750000000001 h-0.6992180000000002 c-14.484376,-0.2773440000000001 -28.753907,3.609375 -41.097657,11.203125 c-19.359375,11.726562 -43.640625,11.726562 -63,0 c-25.292969,-14.9375 -56.703125,-14.9375 -81.996093,0 c-19.363282,11.726562 -43.644532,11.726562 -63.003907,0 c-12.285156,-7.636719 -26.53125,-11.53125 -40.996093,-11.203125 c-14.464844,-0.3281250000000001 -28.710938,3.5664059999999997 -41,11.203125 c-9.398438,5.984375 -20.359376,9.046875 -31.496094,8.796875 c-11.144532,0.265625 -22.117188,-2.796875 -31.503906,-8.796875 c-12.257813,-7.628906 -26.464844,-11.519531 -40.898438,-11.203125 c-3.78125,-0.039063000000000014 -7.5546880000000005,0.19531300000000007 -11.300781,0.6992190000000003 c-1.199219,0.10156200000000003 -2.296875,0.300781 -3.4023440000000003,0.503906 c-0.6718750000000004,0.070312 -1.34375,0.203125 -1.996094,0.394531 c-1,0.19921900000000012 -1.898437,0.3984380000000001 -2.804687,0.601563 c-0.90625,0.18359400000000006 -1.808594,0.4179680000000001 -2.6992190000000003,0.7031250000000002 c-2.421875,0.664062 -4.792969,1.4960930000000001 -7.097656,2.5 c-1.433594,0.5507810000000002 -2.8398440000000003,1.1835930000000001 -4.199219,1.898437 c-0.5859380000000002,0.22265600000000005 -1.152344,0.4921880000000001 -1.6992190000000005,0.800782 c-2.101562,1.097656 -4.101562,2.097656 -6.003906,3.199218 c-3.925781,2.304688 -8.039063,4.277344 -12.296875,5.8984380000000005 c-6.128906,1.996094 -12.554688,2.9414059999999997 -19,2.800781 c-5.523438,0 -10,4.476563 -10,10 s4.476562,10 10,10 zm0,0 " class="" id="svg_6" fill="#dadada" fill-opacity="1"/><path d="m47.461538314819336,357.1811907407227 c4.257812,-1.6210940000000003 8.371094,-3.59375 12.296875,-5.8984380000000005 c1.902344,-1.101562 3.9023440000000003,-2.101562 6.003906,-3.199218 c0.5468750000000001,-0.30859400000000003 1.113281,-0.578126 1.6992190000000003,-0.800782 c1.359375,-0.7148440000000001 2.765625,-1.3476560000000002 4.199219,-1.898437 c2.304687,-1.003907 4.675781000000001,-1.835938 7.097656,-2.5 c0.8906250000000002,-0.285157 1.792969,-0.519531 2.6992190000000003,-0.7031250000000001 c0.90625,-0.203125 1.804687,-0.40234400000000003 2.804687,-0.601563 c0.6523440000000001,-0.19140600000000005 1.324219,-0.32421900000000003 1.996094,-0.394531 c1.105469,-0.203125 2.203125,-0.40234400000000003 3.4023440000000003,-0.503906 c3.746093,-0.503906 7.519531,-0.738282 11.300781,-0.6992190000000001 c14.433594,-0.3164060000000001 28.640625,3.5742190000000003 40.898438,11.203125 c9.386718,6 20.359374,9.0625 31.503906,8.796875 c11.136718,0.25 22.097656,-2.8125 31.496094,-8.796875 c12.289062,-7.636719 26.535156,-11.53125 41,-11.203125 c14.464843,-0.32812500000000006 28.710937,3.5664059999999997 40.996093,11.203125 c19.359375,11.726562 43.640625,11.726562 63.003907,0 c25.292968,-14.9375 56.703124,-14.9375 81.996093,0 c19.359375,11.726562 43.640625,11.726562 63,0 c12.34375,-7.59375 26.613281,-11.480469 41.097657,-11.203125 h0.6992180000000001 c2.5,0 4.902344,0.09765600000000003 7.203125,0.29687500000000006 c4.6328130000000005,0.35937500000000006 9.222657,1.164062 13.699219,2.4023440000000003 l60,-128.496094 c1.421875,-3.113281 1.15625,-6.730469 -0.7031250000000001,-9.601562 c-1.816406,-2.8867190000000003 -4.988281,-4.625 -8.398437,-4.597657 h-139.996094 c-2.1679690000000003,-0.015625000000000003 -4.273438,0.6875000000000001 -6.003906,1.996094 l-37.296876,28.003906 h-396.695312 c-3.078125,-0.019531000000000003 -5.992188,1.378907 -7.902344,3.796875 c-1.8632810000000002,2.453125 -2.523437,5.609375 -1.8007810000000002,8.597656 zm0,0 " id="svg_3" class="" fill="#dadada" fill-opacity="1"/><path d="m307.75841331481934,106.38040874072266 c-1.46875,-3.855468 -5.175781,-6.398437 -9.300781,-6.394531 h-120 v-50 c0,-5.5234369999999995 -4.476563,-10 -9.996094,-10 h-40 c-5.523438,0 -10,4.476563 -10,10 v50 h-20 c-5.523438,0 -10,4.476563 -10,10 v100 h259.105469 zm-154.296875,73.605469 c-13.808594,0 -25,-11.199219 -25,-25 c0,-13.808593 11.191406,-25 25,-25 s24.996094,11.191407 24.996094,25 c0,13.800781 -11.1875,25 -24.996094,25 zm99.996094,0 c-13.808594,0 -25,-11.199219 -25,-25 c0,-13.808593 11.191406,-25 25,-25 s25,11.191407 25,25 c0,13.800781 -11.191406,25 -25,25 zm0,0 " id="svg_4" class="" fill="#dadada" fill-opacity="1"/></g></svg>